Coordinates
version=1
nRows=14
nColumns=36
inDegrees=yes

Units are S.I. units (second, meters, Newtons, ...)
If the header above contains a line with 'inDegrees', this indicates whether rotational values are in degrees (yes) or radians (no).

endheader
time	pelvis_tilt	pelvis_list	pelvis_rotation	pelvis_tx	pelvis_ty	pelvis_tz	hip_flexion_r	hip_adduction_r	hip_rotation_r	knee_angle_r	knee_angle_r_beta	ankle_angle_r	subtalar_angle_r	mtp_angle_r	hip_flexion_l	hip_adduction_l	hip_rotation_l	knee_angle_l	knee_angle_l_beta	ankle_angle_l	subtalar_angle_l	mtp_angle_l	lumbar_extension	lumbar_bending	lumbar_rotation	arm_flex_r	arm_add_r	arm_rot_r	elbow_flex_r	pro_sup_r	arm_flex_l	arm_add_l	arm_rot_l	elbow_flex_l	pro_sup_l
      0.00000000	     -5.70377757	     -0.10157378	     -4.01434263	     -0.12944700	      0.90358486	     -0.57312372	      1.59893830	     -3.60898702	      8.10310357	      1.49173905	      0.02603576	      8.17878533	     -4.17159574	     -6.04181011	     -0.15745313	     -5.00083754	      2.38145923	      0.81071400	      0.01414963	      8.05522605	     -9.29183372	     -6.04181011	      7.36978137	      1.34431272	     -1.14241016	      5.90533617	    -13.54115201	      0.90281208	     64.37969658	     99.14082358	      2.57074286	    -14.91237737	     -4.02568278	     66.66071406	     86.93674475
      0.01000000	     -5.74446282	     -0.08734599	     -3.99603690	     -0.12922435	      0.90355958	     -0.57310882	      1.61083162	     -3.61033705	      8.20341172	      1.46694361	      0.02560300	      8.05523157	     -4.46626390	     -6.51225687	     -0.13589727	     -4.98305034	      2.50380127	      0.79112988	      0.01380782	      7.91495263	     -9.55057729	     -6.51225687	      7.39926047	      1.30896345	     -1.21280183	      6.08117753	    -13.55871194	      1.15981651	     64.50334251	     95.94066203	      2.58486810	    -15.04222097	     -3.84133128	     67.02963107	     84.17623933
      0.02000000	     -5.74298649	     -0.07147475	     -3.98058479	     -0.12894537	      0.90356373	     -0.57308613	      1.60860656	     -3.62898580	      8.04633649	      1.50283415	      0.02622940	      8.21228188	     -4.17171789	     -6.94286466	     -0.14536023	     -4.97476568	      2.28632877	      0.79725743	      0.01391477	      8.11941580	     -9.11135582	     -6.94286466	      7.37058811	      1.29479603	     -1.14996176	      6.12815097	    -13.58966910	      0.90070124	     64.32419927	     99.44078096	      2.72662624	    -15.09509969	     -3.75524385	     66.69010199	     87.05044586
      0.03000000	     -5.76318429	     -0.05102411	     -3.96223103	     -0.12872865	      0.90353315	     -0.57308235	      1.61333268	     -3.64552772	      8.06888231	      1.50735481	      0.02630830	      8.21487698	     -4.24956926	     -7.18223911	     -0.13710329	     -4.95219448	      2.28095664	      0.78502912	      0.01370134	      8.09243899	     -9.14125311	     -7.18223911	      7.36220326	      1.28378522	     -1.12468756	      6.21757611	    -13.66118951	      0.96643980	     64.38518824	     99.11319627	      2.85435419	    -15.11684273	     -3.69318733	     66.67622327	     87.05933941
      0.04000000	     -5.77472321	     -0.04029770	     -3.93302903	     -0.12850363	      0.90352327	     -0.57308862	      1.60431878	     -3.65702795	      8.03918045	      1.50767595	      0.02631391	      8.19897062	     -4.23592588	     -7.31955055	     -0.13292787	     -4.94476067	      2.26336538	      0.78364896	      0.01367725	      8.09817636	     -9.05870458	     -7.31955055	      7.33880425	      1.26780648	     -1.13715869	      6.34544678	    -13.71871625	      1.03519124	     64.37387504	     99.28453735	      2.96314152	    -15.12679219	     -3.68842665	     66.70354024	     87.17908489
      0.05000000	     -5.80090020	     -0.02918855	     -3.89905240	     -0.12831271	      0.90351732	     -0.57311245	      1.59136071	     -3.66082595	      8.15293378	      1.45704047	      0.02543015	      8.02850324	     -4.52703962	     -7.36822926	     -0.11726111	     -4.92650746	      2.37652466	      0.77165568	      0.01346793	      8.00599525	     -9.24753100	     -7.36822926	      7.34243287	      1.25020199	     -1.21266212	      6.52666540	    -13.80884308	      1.41086286	     64.53029968	     96.47607127	      3.02022099	    -15.16847852	     -3.59824499	     67.07958953	     84.57070580
      0.06000000	     -5.84764685	     -0.03353113	     -3.86768591	     -0.12807983	      0.90347028	     -0.57313463	      1.60344838	     -3.65008460	      8.21889594	      1.42897231	      0.02494027	      7.89260060	     -4.78408073	     -7.40671409	     -0.07717062	     -4.93222124	      2.43473884	      0.76755639	      0.01339639	      7.91185134	     -9.34218264	     -7.40671409	      7.36407640	      1.25906460	     -1.21454887	      6.62217709	    -13.90616552	      1.49407862	     64.52599790	     97.24734795	      3.13609285	    -15.20377807	     -3.52063015	     67.07778353	     85.01771554
      0.07000000	     -5.83908725	     -0.03257615	     -3.84749820	     -0.12780382	      0.90350416	     -0.57311741	      1.60004830	     -3.66583421	      8.03943292	      1.47723428	      0.02578260	      8.12102907	     -4.28745605	     -7.44126195	     -0.09526020	     -4.93952384	      2.27447544	      0.77553649	      0.01353567	      8.07351709	     -8.98260988	     -7.44126195	      7.31294746	      1.25931693	     -1.18792823	      6.73688123	    -13.98629821	      1.43175639	     64.43255362	     99.31226985	      3.30396224	    -15.26012145	     -3.46784607	     66.84333329	     86.97161982
      0.08000000	     -5.87501041	     -0.03884135	     -3.80448159	     -0.12759575	      0.90350199	     -0.57312549	      1.60786926	     -3.65403923	      8.10037494	      1.46502967	      0.02556959	      8.01232750	     -4.47049739	     -7.45608931	     -0.06449399	     -4.94610485	      2.37940628	      0.76655374	      0.01337889	      7.92239567	     -9.15224548	     -7.45608931	      7.31897358	      1.25434337	     -1.26252367	      6.93658610	    -14.06836016	      1.72584060	     64.51841360	     97.02094503	      3.39782443	    -15.33919956	     -3.38727653	     67.13412544	     84.97503207
      0.09000000	     -5.75554193	     -0.03051044	     -3.76389543	     -0.12720391	      0.90367365	     -0.57311945	      1.50326763	     -3.70248612	      7.54353566	      1.57071447	      0.02741414	      8.63582495	     -3.18751574	     -7.46609159	     -0.20018238	     -4.95464256	      2.00564221	      0.78755267	      0.01374539	      8.49020670	     -8.02605314	     -7.46609159	      7.14925807	      1.23532010	     -1.22363993	      7.02316201	    -14.15233575	      1.87682818	     64.91148085	     93.19823846	      3.62032194	    -15.46965308	     -3.04881678	     67.48879737	     81.82511602
      0.10000000	     -5.81742967	     -0.08692544	     -3.80898289	     -0.12695813	      0.90362753	     -0.57300841	      1.62726050	     -3.65264714	      7.39196141	      1.71936554	      0.03000859	      9.23260786	     -2.25801026	     -7.47321690	     -0.14395978	     -5.05249043	      1.65858147	      0.82458769	      0.01439177	      8.97038169	     -7.19256914	     -7.47321690	      7.22460622	      1.33515073	     -1.11255402	      7.12687852	    -14.21817666	      1.93840627	     65.16097041	     89.87711109	      3.83180422	    -15.48062901	     -2.86890289	     67.70084737	     79.15038981
      0.11000000	     -5.89869359	     -0.07741087	     -3.71891472	     -0.12703817	      0.90365285	     -0.57312206	      1.64589685	     -3.60397134	      7.94395183	      1.57813807	      0.02754371	      8.00669602	     -4.37855315	     -7.48191688	     -0.03772014	     -4.99537835	      2.46915084	      0.79190407	      0.01382133	      7.83262132	     -9.19132953	     -7.48191688	      7.17976694	      1.32584989	     -1.17499398	      7.25124020	    -14.27106808	      1.55624771	     64.64938417	     99.40245325	      4.00128728	    -15.53482517	     -3.04381839	     66.93111679	     86.92495316
      0.12000000	     -5.93134549	     -0.06807463	     -3.70328239	     -0.12692807	      0.90373829	     -0.57309344	      1.68259362	     -3.60138645	      8.02249430	      1.58968511	      0.02774524	      7.84829778	     -4.62535675	     -7.48700706	      0.00436760	     -4.98479670	      2.50825977	      0.79717467	      0.01391332	      7.70244559	     -9.34502692	     -7.48700706	      7.15123965	      1.30845173	     -1.27895022	      7.57054121	    -14.40704582	      2.10311719	     64.66867415	     97.15708519	      4.06254660	    -15.67641492	     -2.95571243	     67.31688462	     84.99261253
      0.13000000	     -5.98314922	     -0.04143638	     -3.72283183	     -0.12685343	      0.90379284	     -0.57309004	      1.75234507	     -3.61016462	      8.24279289	      1.61472514	      0.02818227	      7.63247498	     -5.06266709	     -7.49051303	      0.06428349	     -4.94724827	      2.55685214	      0.80755921	      0.01409457	      7.48485754	     -9.62375390	     -7.49051303	      7.13999230	      1.30225052	     -1.24201300	      7.77159925	    -14.51527587	      2.31784248	     64.80466904	     95.38308442	      4.22984200	    -15.80060098	     -2.70386493	     67.57744918	     83.29849982
